<?xml version="1.0" standalone="no"?>
<!DOCTYPE svg PUBLIC "-//W3C//DTD SVG 20010904//EN"
 "http://www.w3.org/TR/2001/REC-SVG-20010904/DTD/svg10.dtd">
<svg version="1.0" xmlns="http://www.w3.org/2000/svg"
 width="700.000000pt" height="700.000000pt" viewBox="0 0 700.000000 700.000000"
 preserveAspectRatio="xMidYMid meet">
<metadata>
Created by potrace 1.11, written by Peter Selinger 2001-2013
</metadata>
<g transform="translate(0.000000,700.000000) scale(0.100000,-0.100000)"
fill="#000000" stroke="none">
<path d="M2863 5730 c-9 -30 -17 -57 -18 -60 -1 -3 -9 -27 -17 -55 -9 -27 -40
-124 -68 -215 -28 -91 -75 -241 -105 -335 -89 -280 -226 -717 -240 -765 -7
-25 -83 -270 -170 -545 -86 -275 -161 -516 -167 -535 -5 -19 -12 -42 -15 -50
-3 -8 -7 -19 -8 -25 -2 -5 -28 -91 -60 -190 -31 -99 -104 -331 -162 -515 -57
-184 -118 -378 -135 -430 -16 -52 -31 -102 -33 -110 -2 -8 -25 -80 -50 -160
-26 -80 -66 -208 -90 -285 -24 -77 -50 -159 -58 -183 -8 -23 -12 -44 -8 -46 3
-2 240 -3 525 -3 l519 2 64 245 c35 135 66 254 68 266 3 12 22 88 44 170 21
82 51 199 66 259 15 61 31 117 36 125 7 13 95 15 699 16 380 0 693 -2 695 -5
3 -6 93 -347 100 -381 3 -16 160 -616 173 -665 l8 -30 546 -1 546 -1 -9 26
c-5 14 -25 78 -45 141 -55 177 -133 427 -159 510 -32 103 -156 501 -255 815
-44 143 -99 319 -121 390 -22 72 -44 141 -49 155 -5 14 -29 93 -55 175 -25 83
-50 161 -55 175 -5 14 -27 86 -50 160 -23 74 -45 146 -50 160 -5 14 -17 54
-28 90 -11 36 -43 137 -70 225 -28 88 -71 228 -97 310 -25 83 -50 161 -55 175
-5 14 -30 93 -55 175 -61 196 -129 414 -171 545 -18 58 -49 157 -68 220 l-36
116 -620 0 -620 0 -17 -56z m630 -747 c3 -10 9 -31 13 -48 4 -16 8 -34 10 -40
13 -49 192 -785 199 -815 2 -8 20 -78 40 -155 20 -77 39 -147 40 -155 2 -8 19
-71 38 -140 40 -144 127 -493 127 -509 0 -8 -145 -11 -483 -11 l-484 0 17 68
c16 63 52 195 87 322 8 30 21 78 28 105 7 28 27 102 44 165 28 102 132 527
145 591 3 13 7 33 10 44 3 11 17 70 30 130 50 226 86 381 97 423 12 43 34 56
42 25z"/>
</g>
</svg>
