<?xml version="1.0" standalone="no"?>
<!DOCTYPE svg PUBLIC "-//W3C//DTD SVG 20010904//EN"
 "http://www.w3.org/TR/2001/REC-SVG-20010904/DTD/svg10.dtd">
<svg version="1.0" xmlns="http://www.w3.org/2000/svg"
 width="700.000000pt" height="700.000000pt" viewBox="0 0 700.000000 700.000000"
 preserveAspectRatio="xMidYMid meet">
<metadata>
Created by potrace 1.11, written by Peter Selinger 2001-2013
</metadata>
<g transform="translate(0.000000,700.000000) scale(0.100000,-0.100000)"
fill="#000000" stroke="none">
<path d="M2820 6708 c-50 -156 -112 -346 -137 -423 -24 -77 -48 -149 -53 -160
-4 -11 -22 -63 -38 -115 -41 -128 -268 -827 -297 -915 -13 -38 -76 -232 -140
-430 -64 -198 -130 -398 -145 -445 -16 -47 -79 -240 -140 -430 -61 -190 -122
-376 -135 -415 -28 -82 -175 -535 -179 -550 -2 -5 -6 -17 -9 -25 -3 -8 -52
-157 -108 -330 -56 -173 -126 -389 -156 -480 -30 -91 -55 -169 -57 -175 -3
-13 -104 -325 -182 -560 -34 -104 -113 -345 -174 -535 -62 -190 -138 -426
-171 -524 -32 -99 -59 -184 -59 -188 0 -4 284 -8 630 -8 347 0 630 2 630 5 0
2 32 113 71 247 38 134 72 250 74 258 2 8 38 134 80 280 42 146 79 272 80 280
2 8 31 110 65 225 61 211 157 545 166 578 5 16 70 17 1182 17 l1177 0 29 -103
c16 -56 35 -122 42 -147 7 -25 54 -187 104 -360 50 -173 97 -337 105 -365 7
-27 25 -90 40 -140 15 -49 46 -160 71 -245 24 -85 51 -177 59 -205 8 -27 32
-111 54 -185 l38 -135 651 -3 c359 -1 652 -1 652 1 0 9 -32 114 -40 132 -8 17
-152 461 -155 475 0 3 -15 48 -32 100 -18 52 -98 298 -178 545 -81 248 -155
475 -165 505 -10 30 -71 217 -135 415 -64 198 -121 372 -127 387 -5 15 -10 28
-9 30 1 2 -17 57 -39 123 -23 66 -43 127 -45 135 -2 8 -21 69 -43 135 -22 66
-95 289 -162 495 -67 206 -130 400 -140 430 -10 30 -73 224 -140 430 -67 206
-130 400 -140 430 -17 50 -186 570 -342 1050 -33 102 -75 230 -93 285 -44 136
-239 734 -265 818 l-22 67 -728 0 -728 0 -92 -282z m824 -695 c3 -10 19 -70
35 -133 17 -63 49 -185 71 -270 23 -85 43 -166 46 -179 3 -14 14 -57 25 -97
11 -40 22 -81 24 -91 12 -62 203 -767 262 -968 30 -104 61 -212 68 -240 7 -27
31 -108 53 -180 36 -115 207 -706 217 -745 2 -8 17 -62 34 -119 17 -57 31
-109 31 -116 0 -10 -182 -13 -891 -13 -716 1 -889 3 -885 13 2 7 55 188 116
402 61 213 132 456 157 538 64 216 134 455 143 490 4 17 33 125 65 240 31 116
58 217 60 225 2 8 15 60 29 115 15 55 40 154 57 220 16 66 36 143 44 170 8 28
17 64 21 80 9 42 164 647 169 663 7 18 43 15 49 -5z"/>
</g>
</svg>
