<?xml version="1.0" standalone="no"?>
<!DOCTYPE svg PUBLIC "-//W3C//DTD SVG 20010904//EN"
 "http://www.w3.org/TR/2001/REC-SVG-20010904/DTD/svg10.dtd">
<svg version="1.0" xmlns="http://www.w3.org/2000/svg"
 width="700.000000pt" height="700.000000pt" viewBox="0 0 700.000000 700.000000"
 preserveAspectRatio="xMidYMid meet">
<metadata>
Created by potrace 1.11, written by Peter Selinger 2001-2013
</metadata>
<g transform="translate(0.000000,700.000000) scale(0.100000,-0.100000)"
fill="#000000" stroke="none">
<path d="M1568 6935 c-2 -2 -28 -5 -58 -8 -231 -23 -515 -129 -730 -272 -389
-259 -659 -706 -705 -1165 -7 -69 -7 -287 -1 -358 17 -183 71 -372 153 -540
39 -81 134 -238 152 -252 3 -3 25 -30 48 -60 124 -164 355 -344 573 -447 133
-64 329 -127 425 -139 46 -5 453 -15 835 -19 190 -2 352 -4 361 -4 14 -1 15
-103 13 -1048 -2 -577 -5 -1061 -7 -1078 -28 -181 -118 -359 -256 -508 -58
-62 -180 -149 -273 -195 -135 -67 -225 -86 -403 -86 -82 0 -163 3 -180 6 -72
14 -238 81 -300 120 -120 77 -205 153 -274 247 -131 176 -189 350 -189 562 0
255 91 479 267 658 112 115 230 188 400 251 l84 31 404 3 c222 1 406 5 409 9
4 4 8 449 5 643 l-1 41 -257 -3 c-349 -4 -595 -12 -641 -20 -89 -15 -257 -65
-337 -99 -241 -104 -364 -185 -536 -356 -113 -113 -141 -146 -209 -247 -156
-235 -244 -482 -269 -757 -35 -373 61 -747 274 -1070 57 -86 228 -268 335
-357 78 -64 215 -150 323 -201 43 -20 81 -37 84 -37 3 0 19 -6 36 -14 87 -40
275 -82 415 -93 432 -34 811 73 1137 320 90 67 243 220 312 309 170 221 280
476 318 738 6 40 16 456 20 835 2 193 4 353 4 356 1 3 488 5 1084 3 l1082 -3
80 -30 c188 -69 279 -124 390 -236 125 -124 218 -285 259 -443 18 -72 21 -113
20 -228 0 -76 -4 -159 -8 -184 -12 -72 -69 -213 -122 -302 -88 -146 -273 -313
-414 -372 -25 -10 -54 -23 -65 -28 -11 -5 -61 -20 -110 -33 -77 -19 -111 -23
-230 -21 -155 2 -227 16 -356 71 -226 95 -410 284 -510 523 -56 136 -61 181
-64 585 -1 202 -4 369 -6 371 -2 2 -139 7 -304 10 -165 4 -317 8 -337 10 -21
1 -39 -2 -41 -8 -5 -13 0 -433 8 -685 9 -281 43 -419 168 -671 201 -408 561
-703 1022 -840 50 -14 175 -37 255 -46 57 -7 358 -7 368 0 4 2 32 7 62 11 231
25 540 159 750 324 47 37 215 202 262 258 15 17 54 71 86 120 194 288 284 598
276 944 -2 70 -6 140 -8 155 -3 15 -8 48 -12 73 -8 61 -29 148 -60 246 -103
328 -350 650 -654 853 -142 94 -397 202 -540 228 -175 32 -249 36 -815 38
l-480 2 0 970 c1 892 5 1130 20 1224 10 57 25 100 66 183 130 261 350 448 615
518 90 24 298 33 399 18 352 -55 667 -349 762 -711 18 -69 24 -279 10 -382
-20 -161 -121 -357 -253 -493 -120 -123 -257 -207 -409 -252 -109 -32 -176
-36 -547 -36 -225 0 -348 -4 -348 -10 -1 -15 -1 -571 -1 -632 l1 -51 268 3
c623 10 684 16 892 91 146 52 350 160 443 234 224 178 372 357 482 585 139
286 193 583 162 885 -11 112 -53 306 -80 370 -5 14 -11 30 -12 35 -6 25 -79
181 -106 226 -16 28 -29 52 -29 54 0 3 -25 40 -55 82 -192 272 -472 487 -785
601 -85 32 -215 67 -280 77 -19 2 -62 9 -95 14 -56 8 -310 6 -365 -3 -14 -2
-45 -7 -70 -11 -25 -3 -61 -10 -80 -15 -19 -5 -48 -11 -65 -14 -16 -3 -68 -18
-115 -34 -262 -89 -445 -204 -646 -407 -174 -176 -301 -380 -382 -617 -35
-101 -47 -145 -67 -253 -7 -39 -17 -491 -19 -896 l-1 -316 -1091 3 -1090 3
-110 44 c-138 56 -209 98 -306 181 -158 135 -261 310 -308 521 -27 123 -23
315 9 430 87 314 322 560 627 660 311 101 647 33 899 -182 125 -107 231 -258
279 -401 46 -133 49 -170 52 -552 1 -201 3 -368 3 -372 1 -5 155 -8 344 -8
l343 0 -2 328 c-1 284 -8 483 -19 540 -1 9 -6 37 -10 62 -7 47 -40 170 -54
205 -5 11 -21 54 -37 95 -34 89 -131 265 -183 335 -94 123 -296 323 -403 396
-115 79 -369 200 -471 224 -101 24 -208 44 -265 50 -76 7 -309 15 -314 10z
m2103 -3270 c7 -57 2 -335 -6 -338 -8 -2 -320 -1 -335 2 -4 1 -5 323 -1 341 2
10 341 5 342 -5z"/>
</g>
</svg>
