<?xml version="1.0" standalone="no"?>
<!DOCTYPE svg PUBLIC "-//W3C//DTD SVG 20010904//EN"
 "http://www.w3.org/TR/2001/REC-SVG-20010904/DTD/svg10.dtd">
<svg version="1.0" xmlns="http://www.w3.org/2000/svg"
 width="700.000000pt" height="700.000000pt" viewBox="0 0 700.000000 700.000000"
 preserveAspectRatio="xMidYMid meet">
<metadata>
Created by potrace 1.11, written by Peter Selinger 2001-2013
</metadata>
<g transform="translate(0.000000,700.000000) scale(0.100000,-0.100000)"
fill="#000000" stroke="none">
<path d="M1979 4950 c-11 -30 -25 -64 -30 -75 -8 -18 -202 -524 -279 -725 -18
-47 -36 -94 -41 -105 -5 -11 -107 -276 -228 -590 -120 -313 -258 -671 -306
-795 -47 -124 -98 -254 -111 -290 -14 -36 -29 -74 -34 -85 -5 -11 -22 -56 -38
-100 -17 -44 -39 -103 -50 -131 l-20 -51 296 0 297 0 62 156 c34 86 64 163 67
171 3 8 29 76 59 150 l54 135 494 5 c272 3 548 4 614 2 l121 -3 27 -72 c15
-40 67 -178 116 -307 l90 -235 295 -1 c163 -1 296 1 296 3 0 3 -18 50 -39 106
-22 56 -55 143 -74 192 -39 103 -302 787 -352 915 -18 47 -92 240 -165 430
-72 190 -137 359 -145 375 -7 17 -56 145 -109 285 -54 140 -101 264 -107 275
-5 11 -31 81 -59 155 -28 74 -58 149 -66 167 -7 17 -14 37 -14 45 -1 7 -6 22
-13 33 -12 20 -21 21 -299 20 l-288 0 -21 -55z m441 -1070 c108 -278 156 -403
246 -637 l24 -63 -399 0 -400 0 25 63 c13 34 29 70 34 79 6 10 10 23 10 29 0
6 7 25 15 42 11 25 248 631 305 781 6 16 12 27 14 25 3 -2 59 -146 126 -319z"/>
<path d="M4179 5000 c-3 -17 -4 -2968 -1 -2981 3 -15 50 -16 520 -14 593 3
655 8 832 77 252 98 448 340 506 621 19 95 21 268 4 342 -6 28 -14 61 -16 75
-10 48 -66 170 -106 227 -73 105 -195 208 -330 278 l-57 30 75 69 c151 139
224 295 227 486 3 219 -57 372 -203 521 -106 109 -201 166 -350 211 -80 23
-93 27 -150 33 -25 3 -56 8 -70 10 -87 16 -879 29 -881 15z m866 -554 c57 -13
135 -57 170 -99 63 -73 83 -192 50 -302 -13 -45 -28 -70 -68 -110 -77 -76
-136 -96 -309 -103 l-138 -5 0 318 0 317 133 -5 c72 -3 146 -8 162 -11z m49
-1146 c187 -30 302 -106 365 -239 23 -49 26 -68 26 -161 0 -92 -3 -111 -25
-154 -58 -113 -168 -168 -385 -192 -16 -1 -95 -4 -175 -5 l-145 -3 -3 386 -2
386 137 -3 c76 -2 169 -8 207 -15z"/>
</g>
</svg>
