<?xml version="1.0" standalone="no"?>
<!DOCTYPE svg PUBLIC "-//W3C//DTD SVG 20010904//EN"
 "http://www.w3.org/TR/2001/REC-SVG-20010904/DTD/svg10.dtd">
<svg version="1.0" xmlns="http://www.w3.org/2000/svg"
 width="700.000000pt" height="700.000000pt" viewBox="0 0 700.000000 700.000000"
 preserveAspectRatio="xMidYMid meet">
<metadata>
Created by potrace 1.11, written by Peter Selinger 2001-2013
</metadata>
<g transform="translate(0.000000,700.000000) scale(0.100000,-0.100000)"
fill="#000000" stroke="none">
<path d="M2740 6985 c0 -5 -40 -131 -89 -280 -48 -148 -134 -412 -190 -585
-57 -173 -111 -340 -121 -370 -10 -30 -73 -224 -140 -430 -156 -480 -244 -749
-285 -875 -18 -55 -81 -248 -140 -430 -59 -181 -132 -404 -162 -495 -30 -91
-56 -169 -57 -175 -5 -20 -138 -431 -149 -460 -7 -16 -12 -32 -12 -35 -1 -3
-16 -50 -34 -105 -102 -313 -402 -1234 -478 -1470 -25 -77 -65 -198 -88 -270
-24 -71 -91 -278 -150 -460 -59 -181 -123 -376 -141 -433 -19 -57 -34 -105
-34 -106 0 -2 283 -3 630 -3 l630 0 19 66 c51 171 280 968 286 991 1 8 20 71
40 140 20 69 39 134 42 145 7 24 36 125 105 365 28 96 52 177 55 180 3 3 531
5 1175 5 1162 0 1171 0 1180 -20 4 -11 63 -209 129 -440 277 -966 389 -1352
401 -1390 l13 -40 651 -1 651 -1 -9 26 c-5 14 -28 87 -52 161 -94 292 -211
652 -256 790 -26 80 -96 294 -155 475 -59 182 -122 375 -140 430 -30 90 -200
612 -342 1050 -30 94 -65 202 -78 240 -34 100 -291 891 -327 1005 -16 52 -32
102 -35 110 -3 8 -7 20 -9 25 -1 6 -20 64 -42 130 -22 66 -95 289 -162 495
-67 206 -135 413 -150 460 -16 47 -79 240 -140 430 -61 190 -122 377 -135 415
-13 39 -72 219 -131 400 -58 182 -111 334 -116 340 -13 14 -1458 14 -1458 0z
m778 -1121 c24 -93 68 -261 97 -374 29 -113 62 -239 73 -280 11 -41 39 -147
62 -235 23 -88 62 -234 87 -325 24 -91 46 -174 49 -185 2 -11 8 -31 13 -45 6
-14 20 -61 32 -105 49 -180 59 -217 107 -375 43 -142 149 -505 157 -535 1 -5
5 -17 8 -25 3 -8 17 -55 30 -105 14 -49 45 -160 70 -245 25 -85 43 -157 41
-159 -1 -2 -402 -4 -889 -5 l-887 -1 6 30 c6 27 155 550 177 620 5 17 30 100
55 185 24 85 67 232 95 325 28 94 52 179 54 189 3 11 16 58 29 105 34 115 77
272 81 291 2 8 15 60 30 115 32 119 174 670 181 704 3 14 14 57 25 97 11 40
22 81 23 91 2 10 27 107 55 216 28 109 51 199 51 201 0 1 10 2 22 1 20 -1 26
-18 66 -171z"/>
</g>
</svg>
