<?xml version="1.0" standalone="no"?>
<!DOCTYPE svg PUBLIC "-//W3C//DTD SVG 20010904//EN"
 "http://www.w3.org/TR/2001/REC-SVG-20010904/DTD/svg10.dtd">
<svg version="1.0" xmlns="http://www.w3.org/2000/svg"
 width="700.000000pt" height="700.000000pt" viewBox="0 0 700.000000 700.000000"
 preserveAspectRatio="xMidYMid meet">
<metadata>
Created by potrace 1.11, written by Peter Selinger 2001-2013
</metadata>
<g transform="translate(0.000000,700.000000) scale(0.100000,-0.100000)"
fill="#000000" stroke="none">
<path d="M3068 5518 c-36 -100 -486 -1268 -498 -1293 -8 -18 -102 -262 -315
-820 -215 -563 -257 -672 -266 -690 -5 -11 -28 -72 -52 -135 -24 -63 -79 -205
-122 -315 -43 -110 -88 -227 -100 -260 -25 -67 -51 -135 -158 -413 l-74 -192
415 2 415 3 29 75 c16 41 33 84 38 95 5 11 52 130 105 265 53 135 110 281 128
325 17 44 36 85 43 90 7 7 307 10 859 9 l847 0 80 -210 c43 -115 86 -227 93
-249 8 -22 46 -121 84 -220 l69 -180 417 -3 c229 -1 414 1 411 6 -4 6 -148
379 -206 532 -19 52 -555 1446 -605 1575 -13 33 -62 161 -110 285 -89 232
-132 343 -208 540 -24 63 -143 370 -263 683 l-218 567 -405 0 -406 0 -27 -72z
m499 -1193 c28 -71 81 -208 117 -302 36 -95 81 -212 100 -260 19 -49 50 -131
70 -183 20 -52 41 -104 46 -115 5 -11 27 -69 50 -130 23 -60 57 -149 76 -197
19 -49 34 -90 34 -93 0 -2 -250 -4 -555 -4 -305 0 -555 2 -555 3 0 2 8 21 17
42 9 22 17 41 18 44 3 8 16 43 25 65 5 11 65 169 135 350 70 182 151 391 180
465 29 74 81 208 115 298 35 89 66 159 70 155 4 -4 29 -66 57 -138z"/>
</g>
</svg>
